<svg width="14" height="14" viewBox="0 0 14 14" fill="none" xmlns="http://www.w3.org/2000/svg">
<g id="iconoir:star">
<path id="Vector" d="M4.85352 4.87243L6.32196 1.91521C6.3647 1.82963 6.43044 1.75764 6.51181 1.70733C6.59318 1.65702 6.68695 1.63037 6.78261 1.63037C6.87827 1.63037 6.97205 1.65702 7.05341 1.70733C7.13478 1.75764 7.20052 1.82963 7.24326 1.91521L8.7117 4.87243L11.9945 5.34947C12.0892 5.3626 12.1783 5.40209 12.2516 5.46342C12.3249 5.52476 12.3795 5.60548 12.4091 5.69636C12.4388 5.78724 12.4423 5.88462 12.4192 5.9774C12.3962 6.07017 12.3475 6.1546 12.2788 6.22103L9.90374 8.52147L10.4644 11.7715C10.5362 12.1886 10.0953 12.5063 9.71835 12.3096L6.78261 10.7744L3.84631 12.3096C3.46987 12.5068 3.029 12.1886 3.10078 11.7709L3.66148 8.5209L1.28644 6.22047C1.21804 6.15399 1.16966 6.06965 1.14681 5.97704C1.12395 5.88443 1.12754 5.78727 1.15715 5.69659C1.18677 5.60592 1.24123 5.52538 1.31434 5.46411C1.38745 5.40285 1.47629 5.36333 1.57074 5.35003L4.85352 4.87243Z" fill="#6CC612"/>
</g>
</svg>
