<svg width="142" height="43" viewBox="0 0 142 43" fill="none" xmlns="http://www.w3.org/2000/svg">
<path d="M5.33305 1.62796C2.97185 1.62796 1.05083 3.54898 1.05083 5.91018V36.9619C1.05083 39.3231 2.97185 41.2442 5.33305 41.2442H136.413C138.774 41.2442 140.695 39.3231 140.695 36.9619V5.91018C140.695 3.54898 138.774 1.62796 136.413 1.62796H5.33305ZM136.413 42.2975H5.33305C2.39173 42.2975 0 39.9033 0 36.9619V5.91018C0 2.96886 2.39173 0.574585 5.33305 0.574585H136.413C139.354 0.574585 141.746 2.96886 141.746 5.91018V36.9619C141.746 39.9033 139.354 42.2975 136.413 42.2975Z" fill="#00FFFF"/>
<path d="M49.1527 11.4951L48.6133 9.80561C48.481 9.38833 48.369 8.92271 48.2672 8.52578H48.2469C48.1476 8.92271 48.0433 9.39851 47.9237 9.80561L47.3945 11.4951H49.1527ZM47.1909 12.4391L46.6006 14.383H45.3081L47.5065 7.52838H49.1018L51.3281 14.383H49.9872L49.3664 12.4391" fill="#00FFFF"/>
<path d="M53.1981 9.43158L54.0022 11.9404C54.1447 12.378 54.2439 12.7749 54.3355 13.182H54.366C54.4576 12.7749 54.5696 12.3882 54.7019 11.9404L55.4957 9.43158H56.8061L54.9156 14.383H53.6867L51.8445 9.43158" fill="#00FFFF"/>
<path d="M60.5794 11.9608C59.694 11.9506 58.8492 12.1338 58.8492 12.8869C58.8492 13.3755 59.1647 13.5994 59.5617 13.5994C60.068 13.5994 60.4268 13.2737 60.5464 12.9175C60.5794 12.8259 60.5794 12.7343 60.5794 12.6427V11.9608ZM61.7982 13.1923C61.7982 13.6401 61.8185 14.0777 61.8796 14.3805H60.7499L60.6609 13.8335H60.6278C60.3352 14.2177 59.8161 14.4925 59.1647 14.4925C58.1673 14.4925 57.6101 13.7724 57.6101 13.0192C57.6101 11.7776 58.7169 11.1389 60.5464 11.1491V11.0677C60.5464 10.742 60.4166 10.2026 59.5413 10.2026C59.0528 10.2026 58.5439 10.3553 58.2081 10.569L57.9638 9.75479C58.3302 9.53089 58.9714 9.3197 59.755 9.3197C61.3402 9.3197 61.7982 10.3247 61.7982 11.4137" fill="#00FFFF"/>
<path d="M63.5665 9.43165H64.8158V14.383H63.5665V9.43165ZM64.1848 8.71922C63.7701 8.71922 63.4953 8.41389 63.4953 8.0475C63.4953 7.66075 63.7777 7.3656 64.1975 7.3656C64.6224 7.3656 64.8871 7.66075 64.8972 8.0475C64.8972 8.41389 64.6224 8.71922 64.1975 8.71922" fill="#00FFFF"/>
<path d="M66.6148 14.383H67.8666V7.15179H66.6148V14.383Z" fill="#00FFFF"/>
<path d="M72.299 11.9608C71.4136 11.9506 70.5689 12.1338 70.5689 12.8869C70.5689 13.3755 70.8844 13.5994 71.2813 13.5994C71.7902 13.5994 72.1464 13.2737 72.2685 12.9175C72.299 12.8259 72.299 12.7343 72.299 12.6427V11.9608ZM73.5178 13.1923C73.5178 13.6401 73.5382 14.0777 73.5992 14.3805H72.4721L72.3805 13.8335H72.3499C72.0548 14.2177 71.5357 14.4925 70.8844 14.4925C69.8895 14.4925 69.3297 13.7724 69.3297 13.0192C69.3297 11.7776 70.4391 11.1389 72.2685 11.1491V11.0677C72.2685 10.742 72.1362 10.2026 71.2609 10.2026C70.7724 10.2026 70.2635 10.3553 69.9302 10.569L69.6859 9.75479C70.0523 9.53089 70.691 9.3197 71.4747 9.3197C73.0598 9.3197 73.5178 10.3247 73.5178 11.4137" fill="#00FFFF"/>
<path d="M76.5379 12.3373C76.5379 12.439 76.5481 12.5408 76.5684 12.6324C76.7008 13.1413 77.1384 13.5077 77.6753 13.5077C78.4589 13.5077 78.9373 12.8869 78.9373 11.8818C78.9373 11.0065 78.52 10.2941 77.6854 10.2941C77.1766 10.2941 76.7109 10.6605 76.5786 11.2101C76.5583 11.3017 76.5379 11.4137 76.5379 11.5358V12.3373ZM75.2861 7.15179H76.5379V10.1109H76.5583C76.8636 9.63258 77.4005 9.31962 78.1434 9.31962C79.3546 9.31962 80.2171 10.3247 80.2069 11.8309C80.2069 13.6095 79.0798 14.4949 77.9602 14.4949C77.319 14.4949 76.7516 14.2506 76.3954 13.64H76.3751L76.314 14.383H75.2454C75.2657 14.0471 75.2861 13.4975 75.2861 12.9988" fill="#00FFFF"/>
<path d="M81.6801 14.383H82.9294V7.15179H81.6801V14.383Z" fill="#00FFFF"/>
<path d="M87.7994 11.3832C87.8095 10.9252 87.606 10.1721 86.774 10.1721C86.0005 10.1721 85.6748 10.8743 85.6239 11.3832H87.7994ZM85.6239 12.2559C85.6544 13.1516 86.3567 13.5383 87.1505 13.5383C87.7281 13.5383 88.1352 13.4467 88.522 13.3144L88.7052 14.1668C88.2777 14.3525 87.6874 14.4823 86.9775 14.4823C85.3695 14.4823 84.423 13.4976 84.423 11.9837C84.423 10.6097 85.2575 9.3197 86.8452 9.3197C88.4507 9.3197 88.98 10.6402 88.98 11.7292C88.98 11.9633 88.9596 12.1465 88.9393 12.2559" fill="#00FFFF"/>
<path d="M95.1907 13.5892C95.9006 13.5892 96.3993 12.8971 96.3993 11.8921C96.3993 11.1186 96.0533 10.223 95.2009 10.223C94.3155 10.223 93.9593 11.0881 93.9593 11.9124C93.9593 12.8666 94.4376 13.5892 95.178 13.5892H95.1907ZM95.15 14.495C93.7557 14.495 92.6693 13.5383 92.6693 11.943C92.6693 10.3146 93.7354 9.3197 95.2315 9.3197C96.7047 9.3197 97.6919 10.3553 97.6919 11.8616C97.6919 13.6808 96.4095 14.495 95.1602 14.495" fill="#00FFFF"/>
<path d="M99.1626 10.9049C99.1626 10.3349 99.1448 9.85657 99.1244 9.42911H100.211L100.272 10.1721H100.302C100.526 9.78533 101.066 9.3197 101.89 9.3197C102.753 9.3197 103.648 9.87692 103.648 11.4443V14.3805H102.397V11.5868C102.397 10.8743 102.132 10.3349 101.453 10.3349C100.954 10.3349 100.608 10.6911 100.476 11.0677C100.435 11.1695 100.414 11.3221 100.414 11.4646V14.3805H99.1626" fill="#00FFFF"/>
<path d="M109.411 8.15942V9.42908H110.6V10.3654H109.411V12.5409C109.411 13.1515 109.574 13.4568 110.05 13.4568C110.274 13.4568 110.396 13.4467 110.539 13.406L110.559 14.3499C110.376 14.4237 110.04 14.4822 109.653 14.4822C109.188 14.4822 108.811 14.3296 108.577 14.0777C108.302 13.7927 108.18 13.3347 108.18 12.6834V10.3654H107.478V9.42908H108.18V8.50546" fill="#00FFFF"/>
<path d="M111.992 7.15179H113.243V10.1007H113.264C113.416 9.86666 113.63 9.67329 113.885 9.54098C114.139 9.40104 114.432 9.31962 114.747 9.31962C115.592 9.31962 116.475 9.87684 116.475 11.4645V14.383H115.225V11.5968C115.225 10.8844 114.961 10.3348 114.269 10.3348C113.783 10.3348 113.437 10.6605 113.294 11.0371C113.254 11.149 113.243 11.2813 113.243 11.4137V14.383H111.992" fill="#00FFFF"/>
<path d="M121.314 11.3832C121.324 10.9252 121.121 10.1721 120.286 10.1721C119.513 10.1721 119.19 10.8743 119.139 11.3832H121.314ZM119.139 12.2559C119.169 13.1516 119.869 13.5383 120.663 13.5383C121.243 13.5383 121.65 13.4467 122.034 13.3144L122.22 14.1668C121.792 14.3525 121.202 14.4823 120.49 14.4823C118.884 14.4823 117.938 13.4976 117.938 11.9837C117.938 10.6097 118.772 9.3197 120.357 9.3197C121.963 9.3197 122.492 10.6402 122.492 11.7292C122.492 11.9633 122.472 12.1465 122.451 12.2559" fill="#00FFFF"/>
<path d="M31.6343 21.0288C31.6012 17.6372 34.4102 15.9858 34.54 15.9095C32.9497 13.589 30.4842 13.2735 29.6166 13.2481C27.548 13.0318 25.5405 14.4897 24.4871 14.4897C23.4108 14.4897 21.7849 13.271 20.0369 13.3066C17.7826 13.3422 15.6758 14.6475 14.5207 16.6703C12.1391 20.7998 13.9151 26.8657 16.2 30.2039C17.345 31.8374 18.6782 33.6643 20.4262 33.5981C22.1361 33.5269 22.7747 32.5091 24.8382 32.5091C26.8839 32.5091 27.4844 33.5981 29.268 33.5574C31.1025 33.5269 32.2577 31.9163 33.3594 30.265C34.6825 28.3923 35.2117 26.5476 35.232 26.4535C35.1888 26.4382 31.6699 25.0948 31.6343 21.0288Z" fill="#00FFFF"/>
<path d="M28.2655 11.0548C29.1841 9.90474 29.8176 8.3374 29.6395 6.74969C28.3088 6.81076 26.6447 7.67076 25.6855 8.79539C24.8382 9.7877 24.0775 11.4136 24.2759 12.9402C25.772 13.0522 27.3063 12.1871 28.2655 11.0548Z" fill="#00FFFF"/>
<path d="M52.2695 27.5044L51.0889 23.8583C50.9642 23.4868 50.7301 22.609 50.3841 21.23H50.3434C50.206 21.8228 49.9821 22.7006 49.6793 23.8583L48.519 27.5044H52.2695ZM56.3507 33.3286H53.9666L52.6613 29.227H48.1272L46.883 33.3286H44.5625L49.061 19.3649H51.8344" fill="#00FFFF"/>
<path d="M65.6326 28.2525C65.6326 27.2704 65.4113 26.4638 64.9686 25.8277C64.4851 25.1661 63.8363 24.8328 63.0221 24.8328C62.47 24.8328 61.9662 25.0186 61.5209 25.3824C61.0731 25.7514 60.7779 26.2297 60.638 26.8251C60.5693 27.0999 60.5362 27.3263 60.5362 27.5044V29.1837C60.5362 29.9165 60.7601 30.5348 61.2079 31.0386C61.6583 31.5449 62.241 31.7943 62.9585 31.7943C63.8032 31.7943 64.4597 31.4712 64.9253 30.8198C65.3986 30.171 65.6326 29.3161 65.6326 28.2525ZM67.9124 28.1685C67.9124 29.8809 67.4493 31.2371 66.5232 32.2294C65.6937 33.1148 64.6632 33.555 63.4368 33.555C62.1087 33.555 61.1571 33.0767 60.5769 32.1251H60.5362V37.4301H58.2972V26.5732C58.2972 25.4969 58.2717 24.3927 58.2157 23.2579H60.1826L60.3072 24.8557H60.3505C61.096 23.6522 62.2282 23.0518 63.7472 23.0518C64.9329 23.0518 65.9278 23.5225 66.7191 24.4614C67.5129 25.4028 67.9124 26.6368 67.9124 28.1685Z" fill="#00FFFF"/>
<path d="M77.2121 28.2525C77.2121 27.2704 76.9907 26.4638 76.548 25.8277C76.0646 25.1661 75.4157 24.8328 74.6015 24.8328C74.0494 24.8328 73.5481 25.0186 73.1003 25.3824C72.65 25.7514 72.3599 26.2297 72.2225 26.8251C72.1513 27.0999 72.1182 27.3263 72.1182 27.5044V29.1837C72.1182 29.9165 72.3396 30.5348 72.7874 31.0386C73.2377 31.5449 73.8204 31.7943 74.5405 31.7943C75.3827 31.7943 76.0391 31.4712 76.5073 30.8198C76.9754 30.171 77.2121 29.3161 77.2121 28.2525ZM79.4893 28.1685C79.4893 29.8809 79.0288 31.2371 78.1026 32.2294C77.2731 33.1148 76.2452 33.555 75.0163 33.555C73.6906 33.555 72.739 33.0767 72.1564 32.1251H72.1182V37.4301H69.8791V26.5732C69.8791 25.4969 69.8511 24.3927 69.7977 23.2579H71.7645L71.8892 24.8557H71.9325C72.6754 23.6522 73.8077 23.0518 75.3267 23.0518C76.5149 23.0518 77.5047 23.5225 78.3011 24.4614C79.0949 25.4028 79.4893 26.6368 79.4893 28.1685Z" fill="#00FFFF"/>
<path d="M92.4403 29.4127C92.4403 30.5984 92.0281 31.5653 91.1986 32.3133C90.2878 33.1275 89.0232 33.5346 87.3973 33.5346C85.8936 33.5346 84.6875 33.2446 83.7741 32.6644L84.2932 30.8019C85.2778 31.3948 86.3541 31.6899 87.5296 31.6899C88.3718 31.6899 89.0283 31.5016 89.499 31.1225C89.9672 30.7409 90.2012 30.232 90.2012 29.5959C90.2012 29.031 90.0104 28.5501 89.6237 28.1634C89.2369 27.7767 88.5932 27.4179 87.695 27.0846C85.2499 26.1711 84.0285 24.8353 84.0285 23.0797C84.0285 21.9322 84.456 20.9908 85.3135 20.258C86.1684 19.5252 87.3083 19.1562 88.7306 19.1562C90.0028 19.1562 91.0587 19.3802 91.9009 19.8203L91.3411 21.6447C90.5549 21.2172 89.6644 21.0009 88.6695 21.0009C87.8808 21.0009 87.2676 21.1943 86.8274 21.5811C86.4559 21.9271 86.2676 22.3495 86.2676 22.8456C86.2676 23.3978 86.4788 23.8532 86.9088 24.212C87.2803 24.5427 87.9571 24.9015 88.9392 25.2908C90.1402 25.7742 91.0231 26.3391 91.5905 26.9879C92.1553 27.6367 92.4403 28.4458 92.4403 29.4127Z" fill="#00FFFF"/>
<path d="M99.8344 24.9372H97.3689V29.825C97.3689 31.0692 97.804 31.69 98.6767 31.69C99.0736 31.69 99.4069 31.6569 99.669 31.5882L99.7301 33.2853C99.2924 33.4533 98.7098 33.5347 97.9923 33.5347C97.1094 33.5347 96.4173 33.265 95.9186 32.7281C95.4224 32.1887 95.1731 31.2829 95.1731 30.0132V24.9372H93.7024V23.2579H95.1731V21.4157L97.3689 20.7516V23.2579H99.8344" fill="#00FFFF"/>
<path d="M108.641 28.283C108.641 27.3543 108.439 26.5605 108.037 25.8938C107.572 25.0898 106.9 24.6878 106.03 24.6878C105.132 24.6878 104.447 25.0898 103.979 25.8938C103.577 26.5605 103.381 27.3696 103.381 28.3263C103.381 29.255 103.577 30.0488 103.979 30.7129C104.463 31.517 105.139 31.919 106.012 31.919C106.865 31.919 107.536 31.5119 108.02 30.6926C108.434 30.0158 108.641 29.2117 108.641 28.283ZM110.961 28.2118C110.961 29.7588 110.521 31.0284 109.635 32.0233C108.709 33.0461 107.48 33.555 105.949 33.555C104.468 33.555 103.292 33.0639 102.414 32.0844C101.539 31.1048 101.101 29.8682 101.101 28.3772C101.101 26.8149 101.552 25.5376 102.458 24.5453C103.361 23.5479 104.58 23.0518 106.111 23.0518C107.59 23.0518 108.78 23.5428 109.676 24.5224C110.534 25.4791 110.961 26.7055 110.961 28.2118Z" fill="#00FFFF"/>
<path d="M118.233 25.2272C118.011 25.1865 117.777 25.1661 117.528 25.1661C116.742 25.1661 116.131 25.4638 115.704 26.0567C115.332 26.5834 115.146 27.2449 115.146 28.0439V33.3286H112.91L112.928 26.4307C112.928 25.2679 112.9 24.212 112.846 23.2579H114.795L114.877 25.1865H114.935C115.172 24.525 115.546 23.9906 116.055 23.5912C116.554 23.2324 117.093 23.0518 117.673 23.0518C117.879 23.0518 118.067 23.067 118.233 23.0925" fill="#00FFFF"/>
<path d="M126.103 27.2372C126.118 26.5757 125.973 26.0006 125.67 25.5172C125.283 24.8964 124.685 24.5834 123.887 24.5834C123.156 24.5834 122.561 24.8887 122.105 25.4968C121.734 25.9803 121.51 26.5604 121.446 27.2372H126.103ZM128.235 27.8173C128.235 28.2193 128.209 28.5552 128.156 28.8325H121.446C121.469 29.8274 121.795 30.5882 122.418 31.1123C122.983 31.583 123.716 31.8146 124.614 31.8146C125.607 31.8146 126.512 31.6568 127.329 31.3388L127.68 32.8934C126.726 33.3056 125.601 33.5168 124.301 33.5168C122.742 33.5168 121.515 33.0562 120.625 32.1351C119.737 31.2192 119.289 29.9851 119.289 28.4381C119.289 26.9191 119.701 25.6546 120.533 24.647C121.401 23.5682 122.576 23.0313 124.052 23.0313C125.502 23.0313 126.604 23.5682 127.349 24.647C127.942 25.5019 128.235 26.5604 128.235 27.8173Z" fill="#00FFFF"/>
</svg>
