<svg width="70" height="71" viewBox="0 0 70 71" fill="none" xmlns="http://www.w3.org/2000/svg">
<g clip-path="url(#clip0_130_718)">
<path d="M68.8324 44.3377H1.16628C1.01308 44.3375 0.861333 44.3676 0.719752 44.4261C0.578172 44.4847 0.449527 44.5706 0.341192 44.6789C0.232857 44.7872 0.146957 44.9159 0.0884092 45.0575C0.0298619 45.1991 -0.000179125 45.3508 8.0348e-07 45.504C8.0348e-07 59.0126 10.9901 70.0041 24.5001 70.0041H45.4999C59.0099 70.0041 70 59.0126 70 45.504C70.0002 45.3507 69.9701 45.1988 69.9115 45.0572C69.8528 44.9155 69.7668 44.7868 69.6583 44.6784C69.5498 44.5701 69.421 44.4842 69.2793 44.4257C69.1376 44.3673 68.9857 44.3374 68.8324 44.3377ZM45.4986 67.6701H24.5001C12.6691 67.6701 2.9738 58.3536 2.364 46.6703H67.636C67.0221 58.3536 57.3309 67.6701 45.4986 67.6701Z" fill="url(#paint0_linear_130_718)"/>
<path d="M59.5021 16.3443C59.5021 16.2595 59.5021 16.1747 59.4926 16.0448C59.4027 15.1167 59.0468 14.2343 58.4676 13.5035C57.8884 12.7728 57.1106 12.2247 56.2275 11.9253L57.5483 10.6045C58.6558 9.52183 59.3218 8.06644 59.417 6.52059C59.5122 4.97474 59.03 3.4486 58.0638 2.23818C57.0297 0.986181 55.5414 0.195306 53.9252 0.0389605C52.3089 -0.117385 50.6966 0.373557 49.4418 1.40415C49.2927 1.5272 49.1492 1.65709 49.0056 1.80065L47.5713 3.25679C47.2642 2.37313 46.7089 1.59668 45.9721 1.02031C45.2352 0.443941 44.3478 0.0920729 43.4162 0.00679839C42.804 -0.0265898 42.1912 0.0610656 41.6129 0.264749C41.0346 0.468432 40.5022 0.784146 40.046 1.19383C39.5898 1.60351 39.2189 2.09911 38.9545 2.65228C38.6901 3.20545 38.5373 3.80534 38.505 4.4176C38.505 4.50374 38.505 4.58851 38.505 4.67192V6.4603C37.7988 6.05063 36.9971 5.83417 36.1806 5.83273C36.0959 5.83273 36.0097 5.83273 35.8798 5.8423C34.6744 5.95761 33.5562 6.52094 32.746 7.42093C31.9359 8.32093 31.4929 9.49209 31.5046 10.7029V12.289C30.7978 11.8812 29.9962 11.6666 29.1802 11.6669C29.0968 11.6669 29.0107 11.6669 28.8822 11.6751C27.6768 11.7904 26.5585 12.3537 25.7484 13.2537C24.9382 14.1537 24.4952 15.3249 24.5069 16.5357V33.8371C24.5067 33.9904 24.5368 34.1422 24.5953 34.2838C24.6538 34.4255 24.7397 34.5542 24.848 34.6627C24.9563 34.7711 25.085 34.8571 25.2266 34.9158C25.3681 34.9745 25.5199 35.0047 25.6732 35.0047H45.5068C46.3257 35.005 47.1303 34.7895 47.8396 34.3801C48.5488 33.9706 49.1378 33.3816 49.5472 32.6724C49.9566 31.9631 50.1719 31.1585 50.1717 30.3395C50.1714 29.5206 49.9555 28.7161 49.5457 28.0071H51.1208C53.627 28.0754 55.7695 26.1284 56.0047 23.5881C56.0545 22.6742 55.8328 21.766 55.3675 20.9779C56.5065 20.849 57.5583 20.3055 58.3223 19.4509C59.0863 18.5964 59.5092 17.4906 59.5103 16.3443H59.5021ZM56.4846 17.985C56.2682 18.2022 56.0109 18.3743 55.7277 18.4917C55.4445 18.609 55.1408 18.6691 54.8343 18.6686H51.3313C51.022 18.6686 50.7254 18.7915 50.5066 19.0102C50.2879 19.2289 50.165 19.5256 50.165 19.8349C50.165 20.1442 50.2879 20.4409 50.5066 20.6596C50.7254 20.8783 51.022 21.0012 51.3313 21.0012H51.4599C52.0711 21.031 52.646 21.3007 53.0597 21.7517C53.4733 22.2028 53.6924 22.7987 53.6694 23.4103C53.6107 24.0373 53.3162 24.6187 52.8454 25.0369C52.3746 25.4552 51.7626 25.6791 51.1331 25.6636H45.4986C45.342 25.6582 45.1859 25.6844 45.0396 25.7407C44.8933 25.7969 44.7599 25.882 44.6472 25.9909C44.5345 26.0998 44.4449 26.2302 44.3837 26.3745C44.3225 26.5187 44.291 26.6738 44.291 26.8305C44.291 26.9872 44.3225 27.1423 44.3837 27.2866C44.4449 27.4308 44.5345 27.5613 44.6472 27.6702C44.7599 27.7791 44.8933 27.8642 45.0396 27.9204C45.1859 27.9766 45.342 28.0029 45.4986 27.9975C46.1076 28.0122 46.6867 28.2645 47.1123 28.7005C47.5378 29.1365 47.776 29.7215 47.776 30.3307C47.776 30.94 47.5378 31.525 47.1123 31.961C46.6867 32.3969 46.1076 32.6492 45.4986 32.664H26.8326V16.5166C26.8226 15.898 27.0434 15.2978 27.4519 14.8332C27.8604 14.3686 28.4273 14.0728 29.0421 14.0035H29.1693C29.7849 14.0064 30.3744 14.2522 30.8097 14.6875C31.245 15.1228 31.4908 15.7123 31.4936 16.3279V16.3361C31.4936 16.6454 31.6165 16.942 31.8352 17.1608C32.054 17.3795 32.3506 17.5024 32.6599 17.5024C32.9691 17.5024 33.2657 17.3797 33.4846 17.1613C33.7035 16.9429 33.8268 16.6467 33.8276 16.3374V10.6824C33.8179 10.0639 34.0388 9.46395 34.4472 8.99939C34.8557 8.53483 35.4224 8.23895 36.0371 8.16939H36.1629C36.7795 8.17263 37.3699 8.4195 37.8053 8.85617C38.2407 9.29285 38.4858 9.88393 38.4872 10.5006V10.5088C38.487 10.6619 38.517 10.8135 38.5755 10.955C38.634 11.0965 38.7197 11.2251 38.8279 11.3334C38.9361 11.4417 39.0646 11.5276 39.206 11.5863C39.3474 11.6449 39.499 11.6751 39.6521 11.6751C39.9615 11.6747 40.258 11.5518 40.4769 11.3331C40.6958 11.1145 40.819 10.8181 40.8198 10.5088V4.54339C40.8468 3.93124 41.1154 3.35475 41.5667 2.94032C42.0181 2.52589 42.6153 2.30731 43.2275 2.33252C43.854 2.39403 44.4342 2.68967 44.8522 3.16038C45.2702 3.63108 45.4952 4.24217 45.4822 4.87154V5.83956C45.4817 6.07123 45.5502 6.29779 45.679 6.49035C45.8078 6.68291 45.9911 6.83275 46.2054 6.92075C46.4197 7.00876 46.6553 7.03095 46.8823 6.9845C47.1093 6.93805 47.3172 6.82505 47.4797 6.65992L50.645 3.44684C50.7311 3.36207 50.82 3.2814 50.9184 3.2062C51.6918 2.56973 52.6855 2.26499 53.6827 2.35848C54.6799 2.45198 55.5996 2.93612 56.2412 3.70526C56.8441 4.466 57.1429 5.42353 57.0797 6.39213C57.0166 7.36073 56.5959 8.27135 55.8994 8.94736L52.8312 12.0155C52.6686 12.1786 52.5579 12.386 52.5129 12.6118C52.4679 12.8376 52.4907 13.0717 52.5784 13.2846C52.666 13.4975 52.8147 13.6797 53.0056 13.8084C53.1966 13.937 53.4213 14.0063 53.6516 14.0076H54.6811C55.2927 14.0072 55.8829 14.2324 56.3388 14.6401C56.7947 15.0478 57.0841 15.6093 57.1518 16.2171V16.3456C57.1565 16.9609 56.917 17.5529 56.4859 17.9918L56.4846 17.985Z" fill="url(#paint1_linear_130_718)"/>
<path d="M50.508 7.34433L17.8426 40.0097L19.4919 41.6591L52.1573 8.9937L50.508 7.34433Z" fill="url(#paint2_linear_130_718)"/>
<path d="M45.4986 9.34524H43.1646V15.178H45.4986V9.34524Z" fill="url(#paint3_linear_130_718)"/>
<path d="M38.4982 15.178H36.1642V22.1784H38.4982V15.178Z" fill="url(#paint4_linear_130_718)"/>
<path d="M31.4977 20.9998H29.1638V29.1665H31.4977V20.9998Z" fill="url(#paint5_linear_130_718)"/>
<path d="M50.1637 14.0117H44.3309V16.3456H50.1637V14.0117Z" fill="url(#paint6_linear_130_718)"/>
<path d="M44.3309 20.9998H37.3305V23.3338H44.3309V20.9998Z" fill="url(#paint7_linear_130_718)"/>
<path d="M38.4982 28.0002H30.3315V30.3342H38.4982V28.0002Z" fill="url(#paint8_linear_130_718)"/>
<path d="M21.7751 5.39657C20.9834 4.20954 19.753 3.38528 18.354 3.10482C16.9551 2.82436 15.502 3.11064 14.3139 3.90078C14.2374 3.95137 14.1622 4.00469 14.0747 4.06895L13.6549 4.38889L13.2516 4.10177C12.2181 3.12269 10.838 2.59425 9.41491 2.63271C7.99182 2.67118 6.6423 3.27338 5.66322 4.30686C4.68414 5.34033 4.15571 6.72041 4.19418 8.1435C4.23264 9.56659 4.83484 10.9161 5.86831 11.8952C6.16923 12.1818 6.50287 12.4319 6.86232 12.6404L7.84538 13.4088V14.0063C7.84538 15.5532 8.4599 17.0368 9.55376 18.1306C10.6476 19.2245 12.1312 19.839 13.6781 19.839C15.2251 19.839 16.7087 19.2245 17.8025 18.1306C18.8964 17.0368 19.5109 15.5532 19.5109 14.0063V13.4074L20.5432 12.6007C21.6201 11.7772 22.3456 10.5768 22.5741 9.24059C22.8026 7.90433 22.5172 6.5311 21.7751 5.39657ZM19.1144 10.7535L17.6213 11.9198C17.4816 12.0287 17.3685 12.1681 17.2908 12.3273C17.2131 12.4865 17.1727 12.6614 17.1729 12.8386V14.0063C17.1729 14.9346 16.8041 15.8249 16.1477 16.4813C15.4913 17.1377 14.601 17.5065 13.6727 17.5065C12.7444 17.5065 11.8541 17.1377 11.1977 16.4813C10.5412 15.8249 10.1725 14.9346 10.1725 14.0063V12.8386C10.1729 12.6615 10.1328 12.4867 10.0553 12.3274C9.97783 12.1682 9.86498 12.0288 9.72538 11.9198L8.22958 10.7535C8.18648 10.7182 8.14077 10.6862 8.09286 10.6578C7.71952 10.4447 7.39576 10.1546 7.14305 9.80688C6.89033 9.45913 6.71444 9.06161 6.62703 8.64071C6.53963 8.21981 6.54271 7.78513 6.63607 7.36551C6.72943 6.94588 6.91094 6.5509 7.16856 6.20676C7.42618 5.86262 7.75402 5.57718 8.13034 5.36938C8.50666 5.16157 8.92285 5.03615 9.35133 5.00143C9.77981 4.9667 10.2108 5.02347 10.6156 5.16797C11.0205 5.31247 11.39 5.54139 11.6997 5.83956C11.7396 5.87802 11.7821 5.91365 11.8269 5.94621L12.9945 6.78571C13.1969 6.93241 13.4412 7.01003 13.6911 7.00707C13.9411 7.00412 14.1834 6.92075 14.3823 6.7693L15.6128 5.84366C16.2648 5.40409 17.0625 5.23635 17.8363 5.37615C18.6101 5.51595 19.2987 5.95225 19.7556 6.59216C20.2125 7.23207 20.4016 8.02506 20.2826 8.80229C20.1636 9.57953 19.7459 10.2796 19.1185 10.7535H19.1144Z" fill="url(#paint9_linear_130_718)"/>
<path d="M27.9975 1.16624H25.6636V3.4988H27.9975V1.16624Z" fill="url(#paint10_linear_130_718)"/>
<path d="M34.9979 38.4995H32.664V40.8334H34.9979V38.4995Z" fill="url(#paint11_linear_130_718)"/>
<path d="M62.9996 7.00584V9.3384C63.6186 9.3384 64.2122 9.5843 64.6499 10.022C65.0876 10.4597 65.3335 11.0533 65.3335 11.6723C65.3335 12.2913 65.0876 12.885 64.6499 13.3227C64.2122 13.7604 63.6186 14.0063 62.9996 14.0063V16.3388C63.6124 16.3388 64.2192 16.2181 64.7854 15.9836C65.3515 15.7491 65.866 15.4054 66.2993 14.972C66.7326 14.5387 67.0764 14.0243 67.3109 13.4581C67.5454 12.8919 67.6661 12.2851 67.6661 11.6723C67.6661 11.0595 67.5454 10.4527 67.3109 9.88654C67.0764 9.32038 66.7326 8.80595 66.2993 8.37262C65.866 7.9393 65.3515 7.59557 64.7854 7.36106C64.2192 7.12654 63.6124 7.00584 62.9996 7.00584Z" fill="url(#paint12_linear_130_718)"/>
<path d="M4.66512 17.5119H2.33119V19.8459H4.66512V17.5119Z" fill="url(#paint13_linear_130_718)"/>
<path d="M2.33393 12.8441H3.33806e-07V15.178H2.33393V12.8441Z" fill="url(#paint14_linear_130_718)"/>
<path d="M45.4986 37.3373C44.2614 37.3388 43.0753 37.8309 42.2005 38.7057C41.3256 39.5805 40.8335 40.7666 40.8321 42.0038H43.166C43.1808 41.3948 43.433 40.8156 43.869 40.3901C44.305 39.9646 44.89 39.7264 45.4993 39.7264C46.1085 39.7264 46.6935 39.9646 47.1295 40.3901C47.5654 40.8156 47.8177 41.3948 47.8325 42.0038H50.1664C50.165 40.7664 49.6727 39.5801 48.7976 38.7052C47.9224 37.8303 46.736 37.3384 45.4986 37.3373Z" fill="url(#paint15_linear_130_718)"/>
<path d="M13.9995 26.8381H13.8532C13.5938 25.8365 13.0092 24.9494 12.1911 24.316C11.3729 23.6827 10.3676 23.3391 9.33297 23.3391C8.29835 23.3391 7.29303 23.6827 6.47488 24.316C5.65673 24.9494 5.07209 25.8365 4.81278 26.8381H4.66648C3.42886 26.8381 2.24192 27.3297 1.36678 28.2048C0.491648 29.08 0 30.2669 0 31.5045C0 32.7422 0.491648 33.9291 1.36678 34.8042C2.24192 35.6794 3.42886 36.171 4.66648 36.171H13.9995C15.2371 36.171 16.424 35.6794 17.2992 34.8042C18.1743 33.9291 18.6659 32.7422 18.6659 31.5045C18.6659 30.2669 18.1743 29.08 17.2992 28.2048C16.424 27.3297 15.2371 26.8381 13.9995 26.8381ZM13.9995 33.8385H4.66648C4.35533 33.846 4.0458 33.7912 3.75613 33.6773C3.46646 33.5635 3.20249 33.3928 2.97976 33.1754C2.75702 32.958 2.58003 32.6982 2.45918 32.4114C2.33833 32.1246 2.27607 31.8165 2.27607 31.5052C2.27607 31.194 2.33833 30.8859 2.45918 30.599C2.58003 30.3122 2.75702 30.0524 2.97976 29.835C3.20249 29.6176 3.46646 29.447 3.75613 29.3331C4.0458 29.2192 4.35533 29.1645 4.66648 29.172H5.83276C6.14208 29.172 6.43873 29.0491 6.65745 28.8304C6.87617 28.6117 6.99904 28.315 6.99904 28.0057C6.99904 27.3867 7.24494 26.7931 7.68263 26.3554C8.12033 25.9177 8.71397 25.6718 9.33297 25.6718C9.95197 25.6718 10.5456 25.9177 10.9833 26.3554C11.421 26.7931 11.6669 27.3867 11.6669 28.0057C11.6669 28.315 11.7898 28.6117 12.0085 28.8304C12.2272 29.0491 12.5239 29.172 12.8332 29.172H13.9995C14.3106 29.1645 14.6201 29.2192 14.9098 29.3331C15.1995 29.447 15.4634 29.6176 15.6862 29.835C15.9089 30.0524 16.0859 30.3122 16.2068 30.599C16.3276 30.8859 16.3899 31.194 16.3899 31.5052C16.3899 31.8165 16.3276 32.1246 16.2068 32.4114C16.0859 32.6982 15.9089 32.958 15.6862 33.1754C15.4634 33.3928 15.1995 33.5635 14.9098 33.6773C14.6201 33.7912 14.3106 33.846 13.9995 33.8385Z" fill="url(#paint16_linear_130_718)"/>
<path d="M11.6655 33.8371H6.99904C6.6896 33.8375 6.39296 33.9606 6.17428 34.1796C5.9556 34.3985 5.83276 34.6953 5.83276 35.0047V39.6712C5.83258 39.8244 5.86263 39.9762 5.92118 40.1178C5.97972 40.2593 6.06562 40.388 6.17396 40.4963C6.28229 40.6047 6.41093 40.6906 6.55251 40.7491C6.69409 40.8077 6.84584 40.8377 6.99904 40.8375H11.6655C11.8188 40.8377 11.9706 40.8077 12.1123 40.7491C12.2539 40.6906 12.3827 40.6047 12.4911 40.4964C12.5995 40.3881 12.6856 40.2595 12.7443 40.1179C12.803 39.9763 12.8332 39.8245 12.8332 39.6712V35.002C12.8321 34.6929 12.7086 34.3968 12.4898 34.1785C12.271 33.9602 11.9746 33.8375 11.6655 33.8371ZM10.4992 38.5036H8.16669V36.171H10.4992V38.5036Z" fill="url(#paint17_linear_130_718)"/>
<path d="M61.8265 30.3383C61.1341 30.3383 60.4574 30.5436 59.8817 30.9283C59.3061 31.3129 58.8575 31.8597 58.5926 32.4993C58.3277 33.139 58.2585 33.8428 58.3936 34.5218C58.5288 35.2008 58.8623 35.8245 59.3519 36.314C59.8416 36.8034 60.4654 37.1367 61.1445 37.2716C61.8235 37.4065 62.5273 37.337 63.1669 37.0718C63.8064 36.8067 64.353 36.3579 64.7375 35.7821C65.1219 35.2063 65.327 34.5294 65.3267 33.8371C65.3256 32.9092 64.9564 32.0197 64.3002 31.3638C63.644 30.7078 62.7543 30.339 61.8265 30.3383ZM61.8265 35.0047C61.5959 35.0045 61.3705 34.9358 61.1789 34.8075C60.9873 34.6792 60.838 34.497 60.75 34.2838C60.6619 34.0707 60.639 33.8363 60.6842 33.6101C60.7293 33.384 60.8405 33.1763 61.0037 33.0133C61.1668 32.8503 61.3746 32.7394 61.6008 32.6945C61.827 32.6496 62.0615 32.6728 62.2745 32.7611C62.4875 32.8494 62.6696 32.9989 62.7977 33.1907C62.9258 33.3824 62.9941 33.6079 62.9941 33.8385C62.993 34.1474 62.8695 34.4434 62.6507 34.6615C62.4318 34.8796 62.1355 35.002 61.8265 35.002V35.0047Z" fill="url(#paint18_linear_130_718)"/>
<path d="M61.8265 25.6704C60.2113 25.6704 58.6323 26.1494 57.2893 27.0467C55.9463 27.9441 54.8996 29.2196 54.2814 30.7118C53.6633 32.2041 53.5016 33.8462 53.8167 35.4303C54.1318 37.0145 54.9096 38.4697 56.0518 39.6118C57.1939 40.754 58.6491 41.5318 60.2332 41.8469C61.8174 42.162 63.4595 42.0003 64.9517 41.3821C66.444 40.764 67.7195 39.7173 68.6168 38.3743C69.5142 37.0313 69.9932 35.4523 69.9932 33.8371C69.9903 31.672 69.1289 29.5965 67.598 28.0656C66.0671 26.5347 63.9915 25.6733 61.8265 25.6704ZM61.8265 39.6726C60.6726 39.6726 59.5446 39.3304 58.5852 38.6894C57.6258 38.0483 56.878 37.1371 56.4364 36.0711C55.9949 35.005 55.8793 33.832 56.1045 32.7003C56.3296 31.5686 56.8852 30.529 57.7011 29.7131C58.517 28.8972 59.5566 28.3416 60.6883 28.1164C61.82 27.8913 62.9931 28.0069 64.0591 28.4484C65.1252 28.89 66.0363 29.6378 66.6774 30.5972C67.3184 31.5566 67.6606 32.6846 67.6606 33.8385C67.6588 35.3852 67.0435 36.8681 65.9498 37.9618C64.8561 39.0555 63.3732 39.6708 61.8265 39.6726Z" fill="url(#paint19_linear_130_718)"/>
</g>
<defs>
<linearGradient id="paint0_linear_130_718" x1="-2.6077e-07" y1="35.002" x2="70" y2="35.002" gradientUnits="userSpaceOnUse">
<stop stop-color="#6CC612"/>
<stop offset="1" stop-color="#569E0F"/>
</linearGradient>
<linearGradient id="paint1_linear_130_718" x1="-2.6077e-07" y1="35.002" x2="70" y2="35.002" gradientUnits="userSpaceOnUse">
<stop stop-color="#6CC612"/>
<stop offset="1" stop-color="#569E0F"/>
</linearGradient>
<linearGradient id="paint2_linear_130_718" x1="-2.6077e-07" y1="35.002" x2="70" y2="35.002" gradientUnits="userSpaceOnUse">
<stop stop-color="#6CC612"/>
<stop offset="1" stop-color="#569E0F"/>
</linearGradient>
<linearGradient id="paint3_linear_130_718" x1="-2.6077e-07" y1="35.002" x2="70" y2="35.002" gradientUnits="userSpaceOnUse">
<stop stop-color="#6CC612"/>
<stop offset="1" stop-color="#569E0F"/>
</linearGradient>
<linearGradient id="paint4_linear_130_718" x1="-2.6077e-07" y1="35.002" x2="70" y2="35.002" gradientUnits="userSpaceOnUse">
<stop stop-color="#6CC612"/>
<stop offset="1" stop-color="#569E0F"/>
</linearGradient>
<linearGradient id="paint5_linear_130_718" x1="-2.6077e-07" y1="35.002" x2="70" y2="35.002" gradientUnits="userSpaceOnUse">
<stop stop-color="#6CC612"/>
<stop offset="1" stop-color="#569E0F"/>
</linearGradient>
<linearGradient id="paint6_linear_130_718" x1="-2.6077e-07" y1="35.002" x2="70" y2="35.002" gradientUnits="userSpaceOnUse">
<stop stop-color="#6CC612"/>
<stop offset="1" stop-color="#569E0F"/>
</linearGradient>
<linearGradient id="paint7_linear_130_718" x1="-2.6077e-07" y1="35.002" x2="70" y2="35.002" gradientUnits="userSpaceOnUse">
<stop stop-color="#6CC612"/>
<stop offset="1" stop-color="#569E0F"/>
</linearGradient>
<linearGradient id="paint8_linear_130_718" x1="-2.6077e-07" y1="35.002" x2="70" y2="35.002" gradientUnits="userSpaceOnUse">
<stop stop-color="#6CC612"/>
<stop offset="1" stop-color="#569E0F"/>
</linearGradient>
<linearGradient id="paint9_linear_130_718" x1="-2.6077e-07" y1="35.002" x2="70" y2="35.002" gradientUnits="userSpaceOnUse">
<stop stop-color="#6CC612"/>
<stop offset="1" stop-color="#569E0F"/>
</linearGradient>
<linearGradient id="paint10_linear_130_718" x1="-2.6077e-07" y1="35.002" x2="70" y2="35.002" gradientUnits="userSpaceOnUse">
<stop stop-color="#6CC612"/>
<stop offset="1" stop-color="#569E0F"/>
</linearGradient>
<linearGradient id="paint11_linear_130_718" x1="-2.6077e-07" y1="35.002" x2="70" y2="35.002" gradientUnits="userSpaceOnUse">
<stop stop-color="#6CC612"/>
<stop offset="1" stop-color="#569E0F"/>
</linearGradient>
<linearGradient id="paint12_linear_130_718" x1="-2.6077e-07" y1="35.002" x2="70" y2="35.002" gradientUnits="userSpaceOnUse">
<stop stop-color="#6CC612"/>
<stop offset="1" stop-color="#569E0F"/>
</linearGradient>
<linearGradient id="paint13_linear_130_718" x1="-2.6077e-07" y1="35.002" x2="70" y2="35.002" gradientUnits="userSpaceOnUse">
<stop stop-color="#6CC612"/>
<stop offset="1" stop-color="#569E0F"/>
</linearGradient>
<linearGradient id="paint14_linear_130_718" x1="-2.6077e-07" y1="35.002" x2="70" y2="35.002" gradientUnits="userSpaceOnUse">
<stop stop-color="#6CC612"/>
<stop offset="1" stop-color="#569E0F"/>
</linearGradient>
<linearGradient id="paint15_linear_130_718" x1="-2.6077e-07" y1="35.002" x2="70" y2="35.002" gradientUnits="userSpaceOnUse">
<stop stop-color="#6CC612"/>
<stop offset="1" stop-color="#569E0F"/>
</linearGradient>
<linearGradient id="paint16_linear_130_718" x1="-2.6077e-07" y1="35.002" x2="70" y2="35.002" gradientUnits="userSpaceOnUse">
<stop stop-color="#6CC612"/>
<stop offset="1" stop-color="#569E0F"/>
</linearGradient>
<linearGradient id="paint17_linear_130_718" x1="-2.6077e-07" y1="35.002" x2="70" y2="35.002" gradientUnits="userSpaceOnUse">
<stop stop-color="#6CC612"/>
<stop offset="1" stop-color="#569E0F"/>
</linearGradient>
<linearGradient id="paint18_linear_130_718" x1="-2.6077e-07" y1="35.002" x2="70" y2="35.002" gradientUnits="userSpaceOnUse">
<stop stop-color="#6CC612"/>
<stop offset="1" stop-color="#569E0F"/>
</linearGradient>
<linearGradient id="paint19_linear_130_718" x1="-2.6077e-07" y1="35.002" x2="70" y2="35.002" gradientUnits="userSpaceOnUse">
<stop stop-color="#6CC612"/>
<stop offset="1" stop-color="#569E0F"/>
</linearGradient>
<clipPath id="clip0_130_718">
<rect width="70" height="70.0041" fill="white"/>
</clipPath>
</defs>
</svg>
