<svg width="142" height="43" viewBox="0 0 142 43" fill="none" xmlns="http://www.w3.org/2000/svg">
<path d="M5.58746 1.81371C3.22626 1.81371 1.30524 3.73473 1.30524 6.09593V37.1502C1.30524 39.5114 3.22626 41.4299 5.58746 41.4299H136.667C139.028 41.4299 140.949 39.5114 140.949 37.1502V6.09593C140.949 3.73473 139.028 1.81371 136.667 1.81371H5.58746ZM136.667 42.4833H5.58746C2.64614 42.4833 0.25441 40.0916 0.25441 37.1502V6.09593C0.25441 3.15461 2.64614 0.762878 5.58746 0.762878H136.667C139.608 0.762878 142 3.15461 142 6.09593V37.1502C142 40.0916 139.608 42.4833 136.667 42.4833Z" fill="#00FFFF"/>
<path d="M112.409 32.2191H114.363V19.1232H112.409V32.2191ZM130.016 23.8405L127.774 29.5195H127.708L125.382 23.8405H123.276L126.764 31.7764L124.774 36.1909H126.815L132.189 23.8405H130.016ZM118.927 30.7307C118.289 30.7307 117.396 30.4126 117.396 29.6188C117.396 28.6087 118.508 28.2219 119.467 28.2219C120.327 28.2219 120.731 28.4076 121.253 28.6595C121.1 29.8732 120.057 30.7307 118.927 30.7307ZM119.164 23.5555C117.749 23.5555 116.284 24.1789 115.676 25.5605L117.411 26.2831C117.782 25.5605 118.472 25.3238 119.197 25.3238C120.21 25.3238 121.235 25.9294 121.253 27.0082V27.1431C120.899 26.9421 120.141 26.6368 119.215 26.6368C117.345 26.6368 115.442 27.6647 115.442 29.5857C115.442 31.3388 116.973 32.4685 118.693 32.4685C120.006 32.4685 120.731 31.8782 121.187 31.1861H121.253V32.1988H123.141V27.1762C123.141 24.8531 121.406 23.5555 119.164 23.5555ZM107.083 25.4358H104.302V20.9449H107.083C108.546 20.9449 109.373 22.1561 109.373 23.1891C109.373 24.2069 108.546 25.4358 107.083 25.4358ZM107.032 19.1232H102.348V32.2191H104.302V27.2576H107.032C109.2 27.2576 111.33 25.6877 111.33 23.1891C111.33 20.6905 109.2 19.1232 107.032 19.1232ZM81.4917 30.7332C80.1406 30.7332 79.0084 29.6035 79.0084 28.0514C79.0084 26.4815 80.1406 25.334 81.4917 25.334C82.825 25.334 83.8707 26.4815 83.8707 28.0514C83.8707 29.6035 82.825 30.7332 81.4917 30.7332ZM83.7333 24.5732H83.6672C83.2295 24.0516 82.3848 23.5784 81.3212 23.5784C79.0923 23.5784 77.0517 25.5376 77.0517 28.0514C77.0517 30.55 79.0923 32.4914 81.3212 32.4914C82.3848 32.4914 83.2295 32.0181 83.6672 31.4787H83.7333V32.1174C83.7333 33.8221 82.825 34.7356 81.3543 34.7356C80.1559 34.7356 79.4129 33.873 79.1102 33.1479L77.4054 33.8577C77.8939 35.0383 79.1941 36.4886 81.3543 36.4886C83.6493 36.4886 85.5907 35.1401 85.5907 31.8477V23.8481H83.7333V24.5732ZM86.9418 32.2191H88.901V19.1232H86.9418V32.2191ZM91.7863 27.8988C91.7354 26.1762 93.1196 25.3009 94.1144 25.3009C94.8905 25.3009 95.5495 25.6877 95.7683 26.2449L91.7863 27.8988ZM97.8623 26.4128C97.4908 25.418 96.3611 23.5784 94.0457 23.5784C91.7532 23.5784 89.8449 25.3849 89.8449 28.0336C89.8449 30.5322 91.7354 32.4914 94.2671 32.4914C96.3102 32.4914 97.4908 31.2421 97.9794 30.5144L96.4604 29.5017C95.954 30.2447 95.262 30.7332 94.2671 30.7332C93.2722 30.7332 92.5624 30.2803 92.1069 29.3847L98.0633 26.9217L97.8623 26.4128ZM50.3941 24.9447V26.8352H54.9181C54.7832 27.8988 54.4295 28.6748 53.8876 29.2142C53.2311 29.8732 52.2007 30.5984 50.3941 30.5984C47.6106 30.5984 45.4326 28.3542 45.4326 25.5707C45.4326 22.7845 47.6106 20.5404 50.3941 20.5404C51.8979 20.5404 52.9945 21.1307 53.8036 21.8915L55.1369 20.5557C54.0072 19.4768 52.506 18.6499 50.3941 18.6499C46.5801 18.6499 43.3742 21.7566 43.3742 25.5707C43.3742 29.3847 46.5801 32.4914 50.3941 32.4914C52.4551 32.4914 54.0072 31.8146 55.2234 30.55C56.4701 29.3007 56.8594 27.5451 56.8594 26.1279C56.8594 25.6877 56.8264 25.2831 56.7577 24.9447H50.3941ZM62.0017 30.7332C60.6506 30.7332 59.4878 29.6213 59.4878 28.0336C59.4878 26.4307 60.6506 25.334 62.0017 25.334C63.3527 25.334 64.5155 26.4307 64.5155 28.0336C64.5155 29.6213 63.3527 30.7332 62.0017 30.7332ZM62.0017 23.5784C59.5361 23.5784 57.5286 25.4511 57.5286 28.0336C57.5286 30.5984 59.5361 32.4914 62.0017 32.4914C64.4672 32.4914 66.4747 30.5984 66.4747 28.0336C66.4747 25.4511 64.4672 23.5784 62.0017 23.5784ZM71.7594 30.7332C70.4083 30.7332 69.243 29.6213 69.243 28.0336C69.243 26.4307 70.4083 25.334 71.7594 25.334C73.1079 25.334 74.2733 26.4307 74.2733 28.0336C74.2733 29.6213 73.1079 30.7332 71.7594 30.7332ZM71.7594 23.5784C69.2939 23.5784 67.2864 25.4511 67.2864 28.0336C67.2864 30.5984 69.2939 32.4914 71.7594 32.4914C74.2224 32.4914 76.2324 30.5984 76.2324 28.0336C76.2324 25.4511 74.2224 23.5784 71.7594 23.5784Z" fill="#00FFFF"/>
<path d="M48.407 9.43924C48.0126 9.09066 47.4961 8.86675 46.921 8.86675C45.6336 8.86675 44.6413 9.93031 44.6413 11.2356C44.6413 12.5434 45.6336 13.5968 46.921 13.5968C48.0304 13.5968 48.837 12.953 48.8904 11.9327H47.1373V11.2101H49.8369C49.8369 13.3754 48.6843 14.3932 46.921 14.3932C45.1679 14.3932 43.8092 12.981 43.8092 11.2356C43.8092 9.48249 45.1679 8.06781 46.921 8.06781C47.7352 8.06781 48.468 8.38331 49.0049 8.88202" fill="#00FFFF"/>
<path d="M54.6255 8.14154V8.91758H51.8063V10.8869H54.2667V11.6655H51.8063V13.5255H54.7146V14.3041H50.9743V8.14154" fill="#00FFFF"/>
<path d="M60.0197 8.14154V8.92776H58.1496V14.3041H57.3099V8.92776H55.4398V8.14154" fill="#00FFFF"/>
<path d="M63.1772 14.3041H64.0092V8.14154H63.1772V14.3041Z" fill="#00FFFF"/>
<path d="M69.6831 8.14154V8.92776H67.8129V14.3041H66.9708V8.92776H65.1006V8.14154" fill="#00FFFF"/>
<path d="M75.5506 13.5891C76.8483 13.5891 77.8406 12.5434 77.8406 11.2356C77.8406 9.93031 76.8483 8.87438 75.5506 8.87438C74.2632 8.87438 73.2708 9.93031 73.2708 11.2356C73.2708 12.5434 74.2632 13.5891 75.5506 13.5891ZM75.5506 8.06781C77.3139 8.06781 78.6828 9.48249 78.6828 11.2356C78.6828 12.981 77.3139 14.3932 75.5506 14.3932C73.7975 14.3932 72.4388 12.981 72.4388 11.2356C72.4388 9.48249 73.7975 8.06781 75.5506 8.06781Z" fill="#00FFFF"/>
<path d="M83.6035 14.3041L80.7945 9.66309V14.3041H79.9625V8.14154H80.7869L83.5679 12.7469V8.14154H84.3999V14.3041" fill="#00FFFF"/>
<path d="M26.0757 22.9204L14.627 34.1136L29.1933 25.9602L26.0757 22.9204ZM11.639 34.7712C10.9647 34.4272 10.5134 33.8 10.5134 32.9857V10.6649C10.5134 9.85057 10.9647 9.22338 11.639 8.87944L24.95 21.8278L11.639 34.7712ZM33.6961 23.3604L30.6406 25.0852L27.2325 21.8228L30.6406 18.5604L33.7583 20.2852C34.692 21.0084 34.692 22.6371 33.6961 23.3604ZM14.627 9.53192L29.1933 17.6854L26.0757 20.7252L14.627 9.53192Z" fill="#00FFFF"/>
</svg>
