<svg width="22" height="18" viewBox="0 0 22 18" fill="none" xmlns="http://www.w3.org/2000/svg">
<g id="Group">
<path id="Vector" d="M11.6075 17.53V12.55L9.875 11.5L7.8725 12.55V17.53H11.6075Z" fill="#7D4533"/>
<path id="Vector_2" d="M15.2375 0.25H4.88L7.25 12.7075H18.4925C18.7909 12.7075 19.077 12.589 19.288 12.378C19.499 12.167 19.6175 11.8809 19.6175 11.5825V4.63C19.61 2.2075 17.6525 0.25 15.2375 0.25Z" fill="#5092FF"/>
<path id="Vector_3" d="M4.88 0.25C2.4575 0.25 0.5 2.2075 0.5 4.63V11.5825C0.5 11.8809 0.618526 12.167 0.829505 12.378C1.04048 12.589 1.32663 12.7075 1.625 12.7075H8.1275C8.42587 12.7075 8.71202 12.589 8.923 12.378C9.13397 12.167 9.2525 11.8809 9.2525 11.5825V4.63C9.2525 2.2075 7.295 0.25 4.88 0.25Z" fill="#3F5FFF"/>
<path id="Vector_4" d="M5.9525 10H2.735C2.33 10 2 10.33 2 10.735C2 11.14 2.33 11.47 2.735 11.47H5.9525C6.3575 11.47 6.6875 11.14 6.6875 10.735C6.68861 10.6382 6.67035 10.5421 6.6338 10.4525C6.59726 10.3628 6.54316 10.2813 6.47469 10.2129C6.40621 10.1444 6.32475 10.0903 6.23507 10.0537C6.1454 10.0172 6.04933 9.99894 5.9525 10Z" fill="#1345B7"/>
<path id="Vector_5" d="M21.5 9.34825V5.401C21.5 5.04475 21.2232 4.75 20.888 4.75H19.1113C18.7768 4.75 18.5 5.04475 18.5 5.401V9.34825C18.5 9.70525 18.7767 10 19.112 10H20.8887C21.2232 10 21.5 9.70525 21.5 9.34825Z" fill="#F92F60"/>
<path id="Vector_6" d="M14.387 5.9723C14.1873 6.31839 13.8789 6.5889 13.5097 6.74185C13.1406 6.89481 12.7312 6.92166 12.3453 6.81824C11.9593 6.71482 11.6182 6.48692 11.375 6.16988C11.1317 5.85284 10.9999 5.46439 11 5.0648C10.9999 4.6652 11.1317 4.27675 11.375 3.95971C11.6182 3.64268 11.9593 3.41477 12.3453 3.31135C12.7312 3.20793 13.1406 3.23478 13.5097 3.38774C13.8789 3.54069 14.1873 3.8112 14.387 4.1573H21.065C21.5675 4.1573 21.9725 4.5623 21.9725 5.0648C21.9725 5.5673 21.5675 5.9723 21.065 5.9723H14.387Z" fill="#D3D3D3"/>
</g>
</svg>
