<svg width="70" height="70" viewBox="0 0 70 70" fill="none" xmlns="http://www.w3.org/2000/svg">
<path d="M62.3916 45.7188C62.3274 45.609 62.2576 45.5027 62.1824 45.4002C61.4794 44.4201 60.416 43.7592 59.226 43.5628C58.0359 43.3665 56.8166 43.6507 55.8359 44.3529L42.793 53.6662H29.1662C28.8569 53.6662 28.5603 53.5433 28.3416 53.3246C28.1229 53.1059 28 52.8093 28 52.5C28 52.1907 28.1229 51.8941 28.3416 51.6754C28.5603 51.4567 28.8569 51.3338 29.1662 51.3338H36.75C37.8328 51.3327 38.8708 50.9021 39.6365 50.1365C40.4021 49.3708 40.8327 48.3328 40.8338 47.25C40.8338 47.2377 40.8338 47.1297 40.8338 47.1133C40.7946 46.0391 40.3352 45.0233 39.5546 44.2843C38.774 43.5454 37.7345 43.1424 36.6598 43.1621H21.484C20.1344 43.1747 18.8305 43.6528 17.7926 44.5156L12.0873 49.2693C11.9556 49.3791 11.8496 49.5164 11.7769 49.6716C11.7041 49.8268 11.6663 49.9962 11.6662 50.1676V64.1676C11.6666 64.477 11.7897 64.7736 12.0087 64.9923C12.2276 65.211 12.5244 65.3338 12.8338 65.3338H41.7799C43.6769 65.329 45.5133 64.6655 46.9752 63.4566L61.1188 51.7699C62.0483 51.1025 62.6945 50.1113 62.93 48.9915C63.1656 47.8716 62.9735 46.7041 62.3916 45.7188ZM59.7023 49.9201L45.4918 61.6602C44.4464 62.5233 43.1342 62.9973 41.7785 63.0014H14V50.7131L19.2855 46.3135C19.905 45.7973 20.6832 45.51 21.4895 45.5H36.6939C36.9275 45.4962 37.1595 45.5385 37.3766 45.6244C37.5938 45.7103 37.7919 45.8382 37.9597 46.0007C38.1274 46.1632 38.2615 46.3572 38.3542 46.5716C38.4469 46.7859 38.4964 47.0165 38.5 47.25C38.4996 47.714 38.3151 48.1589 37.987 48.487C37.6589 48.8151 37.214 48.9996 36.75 49H29.1662C28.238 49 27.3477 49.3688 26.6913 50.0251C26.035 50.6815 25.6662 51.5717 25.6662 52.5C25.6662 53.4283 26.035 54.3185 26.6913 54.9749C27.3477 55.6313 28.238 56 29.1662 56H43.1662C43.4112 56.0005 43.6502 55.9245 43.8498 55.7826L57.199 46.2506C57.4358 46.0806 57.7039 45.9591 57.9878 45.8931C58.2717 45.827 58.5659 45.8177 58.8534 45.8658C59.141 45.9138 59.4161 46.0182 59.6632 46.1729C59.9102 46.3276 60.1243 46.5297 60.293 46.7674C60.3278 46.8149 60.3602 46.8642 60.39 46.915C60.9766 47.9035 60.7031 49.2023 59.7023 49.9201Z" fill="url(#paint0_linear_130_719)"/>
<path d="M12.7982 47.8338H8.01473e-07V50.1662H11.632V67.6662H8.01473e-07V70H12.7982C12.9514 70.0002 13.1032 69.9701 13.2447 69.9116C13.3863 69.8531 13.515 69.7672 13.6233 69.6588C13.7316 69.5505 13.8175 69.4219 13.876 69.2803C13.9346 69.1387 13.9646 68.987 13.9645 68.8338V49C13.9646 48.8468 13.9346 48.6951 13.876 48.5535C13.8175 48.4119 13.7316 48.2833 13.6233 48.175C13.515 48.0666 13.3863 47.9807 13.2447 47.9222C13.1032 47.8637 12.9514 47.8336 12.7982 47.8338Z" fill="url(#paint1_linear_130_719)"/>
<path d="M5.83379 58.3338C5.14156 58.3338 4.46487 58.5391 3.88929 58.9236C3.31372 59.3082 2.86512 59.8549 2.60021 60.4944C2.3353 61.1339 2.26599 61.8377 2.40104 62.5166C2.53609 63.1955 2.86943 63.8192 3.35892 64.3087C3.8484 64.7981 4.47204 65.1315 5.15097 65.2665C5.82991 65.4016 6.53364 65.3323 7.17318 65.0674C7.81272 64.8025 8.35935 64.3539 8.74393 63.7783C9.12852 63.2027 9.33379 62.526 9.33379 61.8338C9.33307 60.9058 8.96408 60.0159 8.30786 59.3597C7.65164 58.7035 6.76183 58.3345 5.83379 58.3338ZM5.83379 63C5.60275 63.0003 5.37682 62.932 5.1846 62.8038C4.99239 62.6756 4.84252 62.4933 4.75398 62.2799C4.66544 62.0665 4.64221 61.8316 4.68721 61.605C4.73222 61.3784 4.84345 61.1702 5.00682 61.0068C5.17019 60.8434 5.37836 60.7322 5.60498 60.6872C5.83159 60.6422 6.06646 60.6654 6.27987 60.754C6.49327 60.8425 6.67561 60.9924 6.8038 61.1846C6.93199 61.3768 7.00027 61.6027 7 61.8338C6.99928 62.1429 6.87618 62.4391 6.65763 62.6576C6.43908 62.8762 6.14287 62.9993 5.83379 63Z" fill="url(#paint2_linear_130_719)"/>
<path d="M68.8338 36.1662H1.16621C1.01295 36.1662 0.861187 36.1964 0.719606 36.2551C0.578026 36.3138 0.449403 36.3998 0.341092 36.5083C0.232782 36.6167 0.146908 36.7454 0.0883806 36.8871C0.0298535 37.0287 -0.000178875 37.1805 8.01473e-07 37.3338C0.00253364 39.4988 0.863713 41.5745 2.39463 43.1054C3.92554 44.6363 6.00118 45.4975 8.16621 45.5H61.8338C63.9988 45.4975 66.0745 44.6363 67.6054 43.1054C69.1363 41.5745 69.9975 39.4988 70 37.3338C70.0002 37.1805 69.9701 37.0287 69.9116 36.8871C69.8531 36.7454 69.7672 36.6167 69.6589 36.5083C69.5506 36.3998 69.422 36.3138 69.2804 36.2551C69.1388 36.1964 68.9871 36.1662 68.8338 36.1662ZM61.8338 43.1662H8.16621C6.82219 43.1647 5.51981 42.6997 4.47874 41.8497C3.43767 40.9997 2.72162 39.8166 2.45137 38.5H67.5486C67.2784 39.8166 66.5623 40.9997 65.5213 41.8497C64.4802 42.6997 63.1778 43.1647 61.8338 43.1662Z" fill="url(#paint3_linear_130_719)"/>
<path d="M35 5.83379C18.2752 5.83379 4.66621 19.4414 4.66621 36.1662V37.3338C4.66621 37.487 4.69642 37.6388 4.75511 37.7804C4.81381 37.922 4.89983 38.0506 5.00827 38.1589C5.11671 38.2672 5.24543 38.3531 5.38708 38.4116C5.52873 38.4701 5.68053 38.5002 5.83379 38.5H64.1662C64.3195 38.5002 64.4713 38.4701 64.6129 38.4116C64.7546 38.3531 64.8833 38.2672 64.9917 38.1589C65.1002 38.0506 65.1862 37.922 65.2449 37.7804C65.3036 37.6388 65.3338 37.487 65.3338 37.3338V36.1662C65.3338 19.4414 51.7262 5.83379 35 5.83379ZM7 36.1662C7 20.7279 19.5617 8.16621 35 8.16621C50.4383 8.16621 63 20.7279 63 36.1662H7Z" fill="url(#paint4_linear_130_719)"/>
<path d="M15.8102 19.1406C14.9934 20.0589 14.2428 21.0339 13.5639 22.0582L15.508 23.3475C16.1281 22.4143 16.8134 21.5261 17.5588 20.6896L15.8102 19.1406Z" fill="url(#paint5_linear_130_719)"/>
<path d="M35 10.5C28.4698 10.4968 22.1857 12.9915 17.4357 17.4727L19.034 19.1721C23.3513 15.0979 29.0639 12.8301 35 12.8338V10.5Z" fill="url(#paint6_linear_130_719)"/>
<path d="M38.5 0H31.5V2.33379H38.5V0Z" fill="url(#paint7_linear_130_719)"/>
<path d="M36.1676 1.16621H33.8338V7H36.1676V1.16621Z" fill="url(#paint8_linear_130_719)"/>
<defs>
<linearGradient id="paint0_linear_130_719" x1="-2.6077e-07" y1="35" x2="70" y2="35" gradientUnits="userSpaceOnUse">
<stop stop-color="#6CC612"/>
<stop offset="1" stop-color="#569E0F"/>
</linearGradient>
<linearGradient id="paint1_linear_130_719" x1="-2.6077e-07" y1="35" x2="70" y2="35" gradientUnits="userSpaceOnUse">
<stop stop-color="#6CC612"/>
<stop offset="1" stop-color="#569E0F"/>
</linearGradient>
<linearGradient id="paint2_linear_130_719" x1="-2.6077e-07" y1="35" x2="70" y2="35" gradientUnits="userSpaceOnUse">
<stop stop-color="#6CC612"/>
<stop offset="1" stop-color="#569E0F"/>
</linearGradient>
<linearGradient id="paint3_linear_130_719" x1="-2.6077e-07" y1="35" x2="70" y2="35" gradientUnits="userSpaceOnUse">
<stop stop-color="#6CC612"/>
<stop offset="1" stop-color="#569E0F"/>
</linearGradient>
<linearGradient id="paint4_linear_130_719" x1="-2.6077e-07" y1="35" x2="70" y2="35" gradientUnits="userSpaceOnUse">
<stop stop-color="#6CC612"/>
<stop offset="1" stop-color="#569E0F"/>
</linearGradient>
<linearGradient id="paint5_linear_130_719" x1="-2.6077e-07" y1="35" x2="70" y2="35" gradientUnits="userSpaceOnUse">
<stop stop-color="#6CC612"/>
<stop offset="1" stop-color="#569E0F"/>
</linearGradient>
<linearGradient id="paint6_linear_130_719" x1="-2.6077e-07" y1="35" x2="70" y2="35" gradientUnits="userSpaceOnUse">
<stop stop-color="#6CC612"/>
<stop offset="1" stop-color="#569E0F"/>
</linearGradient>
<linearGradient id="paint7_linear_130_719" x1="-2.6077e-07" y1="35" x2="70" y2="35" gradientUnits="userSpaceOnUse">
<stop stop-color="#6CC612"/>
<stop offset="1" stop-color="#569E0F"/>
</linearGradient>
<linearGradient id="paint8_linear_130_719" x1="-2.6077e-07" y1="35" x2="70" y2="35" gradientUnits="userSpaceOnUse">
<stop stop-color="#6CC612"/>
<stop offset="1" stop-color="#569E0F"/>
</linearGradient>
</defs>
</svg>
