<svg width="70" height="71" viewBox="0 0 70 71" fill="none" xmlns="http://www.w3.org/2000/svg">
<path d="M51.3327 35.014H41.9977V37.3477H51.3327C52.5707 37.3477 53.7579 36.856 54.6332 35.9806C55.5085 35.1053 56.0003 33.9181 56.0003 32.6802V25.6789C56.0003 24.441 55.5085 23.2538 54.6332 22.3784C53.7579 21.5031 52.5707 21.0113 51.3327 21.0113H18.6672C17.4293 21.0113 16.2421 21.5031 15.3668 22.3784C14.4915 23.2538 13.9997 24.441 13.9997 25.6789V32.6802C13.9997 33.9181 14.4915 35.1053 15.3668 35.9806C16.2421 36.856 17.4293 37.3477 18.6672 37.3477H28.0023V35.014H18.6672C18.0483 35.014 17.4547 34.7681 17.017 34.3304C16.5794 33.8927 16.3335 33.2991 16.3335 32.6802V25.6789C16.3335 25.0599 16.5794 24.4663 17.017 24.0287C17.4547 23.591 18.0483 23.3451 18.6672 23.3451H51.34C51.959 23.3451 52.5526 23.591 52.9903 24.0287C53.4279 24.4663 53.6738 25.0599 53.6738 25.6789V32.6802C53.6738 32.9873 53.6132 33.2914 53.4955 33.575C53.3777 33.8586 53.2052 34.1162 52.9877 34.333C52.7702 34.5498 52.5121 34.7216 52.2281 34.8384C51.9441 34.9553 51.6398 35.0149 51.3327 35.014Z" fill="url(#paint0_linear_130_717)"/>
<path d="M56.0003 42.0138C55.3376 42.0132 54.6824 42.1542 54.0787 42.4274C53.4749 42.7006 52.9366 43.0996 52.4996 43.5979C52.0575 43.0944 51.512 42.6923 50.9003 42.4189C50.2887 42.1455 49.6252 42.0074 48.9552 42.0138C48.2852 42.0204 47.6245 42.1711 47.0179 42.4557C46.4113 42.7404 45.8732 43.1523 45.44 43.6635C45.0273 43.1478 44.5039 42.7316 43.9085 42.4458C43.3131 42.16 42.661 42.0118 42.0006 42.0124C41.181 42.0108 40.3757 42.2267 39.6668 42.6381V32.6802C39.6668 31.4423 39.175 30.2551 38.2997 29.3797C37.4244 28.5044 36.2372 28.0126 34.9993 28.0126C33.7614 28.0126 32.5742 28.5044 31.6988 29.3797C30.8235 30.2551 30.3317 31.4423 30.3317 32.6802V56.6976L23.9562 50.322C23.5435 49.9047 23.0518 49.5737 22.5099 49.3484C21.968 49.123 21.3866 49.0077 20.7997 49.0093C19.9294 49.0215 19.081 49.2847 18.3566 49.7672C17.6321 50.2498 17.0623 50.9312 16.7156 51.7296C16.3672 52.5283 16.257 53.4107 16.3983 54.2706C16.5396 55.1305 16.9263 55.9313 17.512 56.5765L29.4726 69.6311C29.5819 69.7501 29.7146 69.8451 29.8625 69.9101C30.0104 69.9752 30.1702 70.0088 30.3317 70.0089H59.5039C59.8133 70.0089 60.1101 69.8859 60.329 69.6671C60.5478 69.4482 60.6707 69.1514 60.6707 68.842V46.6711C60.668 45.4345 60.1747 44.2495 59.299 43.3763C58.4233 42.5031 57.2369 42.013 56.0003 42.0138ZM58.3341 67.6853H30.8466L19.2274 55.01C18.852 54.5926 18.6515 54.0469 18.6672 53.4858C18.6669 53.0643 18.7914 52.6523 19.025 52.3015C19.2586 51.9508 19.591 51.6772 19.98 51.5152C20.3703 51.3522 20.8003 51.3092 21.2151 51.3915C21.63 51.4739 22.0109 51.6779 22.3094 51.9776L30.676 60.3441C30.8391 60.507 31.0469 60.6178 31.273 60.6628C31.4991 60.7077 31.7334 60.6846 31.9464 60.5965C32.1596 60.5082 32.3419 60.3587 32.4702 60.1668C32.5984 59.9749 32.6669 59.7493 32.667 59.5186V32.6802C32.667 32.0612 32.9128 31.4676 33.3505 31.03C33.7882 30.5923 34.3818 30.3464 35.0007 30.3464C35.6197 30.3464 36.2133 30.5923 36.651 31.03C37.0886 31.4676 37.3345 32.0612 37.3345 32.6802V46.6828C37.3345 46.9923 37.4574 47.2891 37.6763 47.5079C37.8951 47.7268 38.1919 47.8497 38.5014 47.8497C38.8109 47.8497 39.1077 47.7268 39.3265 47.5079C39.5453 47.2891 39.6683 46.9923 39.6683 46.6828C39.6683 46.0639 39.9141 45.4703 40.3518 45.0326C40.7895 44.5949 41.3831 44.349 42.002 44.349C42.437 44.349 42.8609 44.4859 43.2135 44.7404C43.5662 44.9949 43.8298 45.354 43.9668 45.7668L44.3941 47.0504C44.4817 47.3133 44.6599 47.5365 44.897 47.68C45.134 47.8235 45.4144 47.878 45.6879 47.8337C45.9613 47.7893 46.21 47.6493 46.3896 47.4384C46.5692 47.2276 46.6679 46.9598 46.6681 46.6828C46.6681 46.0639 46.914 45.4703 47.3517 45.0326C47.7893 44.5949 48.3829 44.349 49.0019 44.349C49.6208 44.349 50.2145 44.5949 50.6521 45.0326C51.0898 45.4703 51.3357 46.0639 51.3357 46.6828C51.3357 46.9923 51.4586 47.2891 51.6774 47.5079C51.8963 47.7268 52.1931 47.8497 52.5026 47.8497C52.812 47.8497 53.1088 47.7268 53.3277 47.5079C53.5465 47.2891 53.6694 46.9923 53.6694 46.6828C53.6694 46.0639 53.9153 45.4703 54.353 45.0326C54.7906 44.5949 55.3843 44.349 56.0032 44.349C56.6222 44.349 57.2158 44.5949 57.6534 45.0326C58.0911 45.4703 58.337 46.0639 58.337 46.6828L58.3341 67.6853Z" fill="url(#paint1_linear_130_717)"/>
<path d="M39.6668 15.842L44.9338 12.6812C45.1065 12.5775 45.2494 12.4308 45.3486 12.2555C45.4478 12.0801 45.4998 11.8821 45.4998 11.6806V6.80013C46.2781 6.52477 46.934 5.98322 47.3517 5.27113C47.7694 4.55904 47.922 3.72225 47.7825 2.90856C47.6428 2.09482 47.22 1.35662 46.5888 0.824418C45.9576 0.292211 45.1585 0.000243116 44.3329 0.0001021C43.5072 0.000243116 42.7082 0.292211 42.077 0.824418C41.4458 1.35662 41.023 2.09482 40.8833 2.90856C40.7439 3.72243 40.8967 4.55937 41.3147 5.27149C41.7327 5.9836 42.3889 6.52504 43.1675 6.80013V11.0199L37.9063 14.1807C37.7336 14.2844 37.5907 14.4311 37.4915 14.6065C37.3924 14.7818 37.3403 14.9798 37.3403 15.1813V18.6819H39.6741L39.6668 15.842ZM44.3344 2.347C44.6438 2.347 44.9406 2.46994 45.1595 2.68877C45.3783 2.90761 45.5012 3.20441 45.5012 3.51389C45.5012 3.82336 45.3783 4.12017 45.1595 4.339C44.9406 4.55783 44.6438 4.68077 44.3344 4.68077C44.0249 4.68077 43.7281 4.55783 43.5092 4.339C43.2904 4.12017 43.1675 3.82336 43.1675 3.51389C43.1675 3.20466 43.2902 2.90808 43.5087 2.68929C43.7272 2.4705 44.0237 2.34739 44.3329 2.347H44.3344Z" fill="url(#paint2_linear_130_717)"/>
<path d="M32.667 18.6805V15.1798C32.667 14.9784 32.6149 14.7803 32.5158 14.605C32.4166 14.4297 32.2737 14.283 32.101 14.1792L26.834 11.0199V6.80013C27.6123 6.52477 28.2682 5.98322 28.6859 5.27113C29.1036 4.55904 29.2562 3.72225 29.1167 2.90856C28.977 2.09482 28.5542 1.35662 27.923 0.824418C27.2918 0.292211 26.4928 0.000243116 25.6671 0.0001021C24.8415 0.000243116 24.0424 0.292211 23.4112 0.824418C22.78 1.35662 22.3572 2.09482 22.2175 2.90856C22.078 3.72225 22.2306 4.55904 22.6483 5.27113C23.066 5.98322 23.722 6.52477 24.5002 6.80013V11.6806C24.5002 11.8821 24.5523 12.0801 24.6514 12.2555C24.7506 12.4308 24.8935 12.5775 25.0662 12.6812L30.3332 15.842V18.6805H32.667ZM25.6657 2.34408C25.9751 2.34408 26.2719 2.46702 26.4908 2.68586C26.7096 2.90469 26.8325 3.20149 26.8325 3.51097C26.8325 3.82045 26.7096 4.11725 26.4908 4.33608C26.2719 4.55491 25.9751 4.67785 25.6657 4.67785C25.3562 4.67785 25.0594 4.55491 24.8405 4.33608C24.6217 4.11725 24.4988 3.82045 24.4988 3.51097C24.4995 3.20174 24.623 2.90547 24.8421 2.68723C25.0611 2.46898 25.3579 2.34661 25.6671 2.347L25.6657 2.34408Z" fill="url(#paint3_linear_130_717)"/>
<path d="M57.1672 0.0146882C56.3426 0.0130772 55.544 0.303338 54.9129 0.834065C54.2818 1.36479 53.8589 2.10174 53.719 2.9144C53.5792 3.72718 53.7315 4.56323 54.1491 5.27445C54.5666 5.98567 55.2224 6.52614 56.0003 6.80013V10.9236L46.1926 15.2819C45.9866 15.3735 45.8116 15.5228 45.6886 15.7118C45.5657 15.9007 45.5001 16.1213 45.4998 16.3467V18.6805H47.8336V17.1052L57.6398 12.741C57.844 12.6489 58.0174 12.4999 58.1392 12.3119C58.261 12.1238 58.3261 11.9047 58.3268 11.6806V6.80013C59.1047 6.52614 59.7605 5.98567 60.178 5.27445C60.5956 4.56323 60.7479 3.72718 60.608 2.9144C60.4687 2.10285 60.0469 1.3667 59.4172 0.836075C58.7876 0.305447 57.9906 0.014509 57.1672 0.0146882ZM57.1672 4.68223C56.8577 4.68223 56.5609 4.55929 56.3421 4.34046C56.1232 4.12162 56.0003 3.82482 56.0003 3.51534C56.0003 3.20587 56.1232 2.90907 56.3421 2.69023C56.5609 2.4714 56.8577 2.34846 57.1672 2.34846C57.4767 2.34846 57.7735 2.4714 57.9923 2.69023C58.2111 2.90907 58.3341 3.20587 58.3341 3.51534C58.3337 3.82457 58.2106 4.121 57.9918 4.33951C57.773 4.55803 57.4764 4.68077 57.1672 4.68077V4.68223Z" fill="url(#paint4_linear_130_717)"/>
<path d="M16.3335 3.51389C16.3368 2.6536 16.0232 1.8222 15.4526 1.1784C14.882 0.534585 14.0942 0.123443 13.2398 0.0234399C12.3851 -0.0759458 11.5238 0.14291 10.8202 0.638225C10.1167 1.13354 9.62016 1.87062 9.42551 2.70874C9.23096 3.54703 9.35202 4.42762 9.76556 5.18232C10.1791 5.93703 10.8561 6.51296 11.6674 6.80013V11.6806C11.6672 11.8974 11.7275 12.1099 11.8413 12.2944C11.9552 12.4789 12.1182 12.628 12.3121 12.725L21.001 17.0687V18.6805H23.3348V16.3467C23.3347 16.1302 23.2743 15.9179 23.1605 15.7338C23.0466 15.5496 22.8837 15.4007 22.6901 15.3038L14.0026 10.9601V6.80013C14.6823 6.55915 15.271 6.11414 15.6882 5.52593C16.1054 4.93773 16.3308 4.23502 16.3335 3.51389ZM12.8328 2.347C13.1423 2.347 13.4391 2.46994 13.6579 2.68877C13.8768 2.90761 13.9997 3.20441 13.9997 3.51389C13.9997 3.82336 13.8768 4.12017 13.6579 4.339C13.4391 4.55783 13.1423 4.68077 12.8328 4.68077C12.5233 4.68077 12.2265 4.55783 12.0077 4.339C11.7889 4.12017 11.6659 3.82336 11.6659 3.51389C11.6659 3.36053 11.6962 3.20867 11.7549 3.067C11.8136 2.92533 11.8997 2.79663 12.0082 2.68826C12.1167 2.57988 12.2455 2.49396 12.3873 2.43541C12.529 2.37685 12.6809 2.34681 12.8343 2.347H12.8328Z" fill="url(#paint5_linear_130_717)"/>
<path d="M3.50066 23.3466C3.68268 23.3432 3.86414 23.3251 4.04326 23.2926L7.23324 27.5474C7.34207 27.6925 7.48324 27.8102 7.64554 27.8912C7.80784 27.9723 7.9868 28.0143 8.1682 28.0141H11.6689V25.6803H8.75164L6.10865 22.1593C6.63304 21.5595 6.93636 20.7983 6.9682 20.0022C7.00005 19.2062 6.75849 18.4232 6.28368 17.7834C5.80762 17.144 5.12688 16.687 4.35484 16.4885C3.58279 16.29 2.76603 16.3619 2.04059 16.6924C1.31492 17.0229 0.724574 17.5924 0.368071 18.3056C0.0115683 19.0189 -0.0895185 19.8329 0.0816824 20.6117C0.252832 21.3898 0.685576 22.0858 1.30775 22.5835C1.92993 23.0811 2.70393 23.3505 3.50066 23.3466ZM3.50066 18.679C3.81013 18.679 4.10694 18.802 4.32577 19.0208C4.5446 19.2396 4.66754 19.5364 4.66754 19.8459C4.66754 20.1554 4.5446 20.4522 4.32577 20.671C4.10694 20.8899 3.81013 21.0128 3.50066 21.0128C3.19118 21.0128 2.89438 20.8899 2.67554 20.671C2.45671 20.4522 2.33377 20.1554 2.33377 19.8459C2.33416 19.5367 2.45727 19.2403 2.67606 19.0217C2.89485 18.8032 3.19143 18.6805 3.50066 18.6805V18.679Z" fill="url(#paint6_linear_130_717)"/>
<path d="M7.00131 38.5132C6.99634 37.9116 6.83552 37.3216 6.53456 36.8008L8.75164 33.8471H11.6689V31.5133H8.1682C7.98668 31.5132 7.80765 31.5555 7.64534 31.6368C7.48303 31.7181 7.34192 31.8361 7.23324 31.9815L4.77402 35.2619C4.36895 35.0999 3.93694 35.0157 3.50066 35.014C2.57222 35.014 1.68182 35.3828 1.02532 36.0393C0.368815 36.6958 0 37.5862 0 38.5146C0 39.4431 0.368815 40.3335 1.02532 40.99C1.68182 41.6465 2.57222 42.0153 3.50066 42.0153C3.96049 42.0153 4.41582 41.9247 4.84064 41.7487C5.26545 41.5727 5.65143 41.3147 5.97651 40.9894C6.3016 40.6642 6.55942 40.2781 6.73526 39.8533C6.9111 39.4284 7.0015 38.973 7.00131 38.5132ZM2.33377 38.5132C2.33377 38.2037 2.45671 37.9069 2.67554 37.688C2.89438 37.4692 3.19118 37.3463 3.50066 37.3463C3.81013 37.3463 4.10694 37.4692 4.32577 37.688C4.5446 37.9069 4.66754 38.2037 4.66754 38.5132C4.66754 38.8226 4.5446 39.1194 4.32577 39.3383C4.10694 39.5571 3.81013 39.68 3.50066 39.68C3.19118 39.68 2.89438 39.5571 2.67554 39.3383C2.45671 39.1194 2.33377 38.8226 2.33377 38.5132Z" fill="url(#paint7_linear_130_717)"/>
<path d="M10.5005 55.0611V49.7342L21.5217 44.2309C21.7168 44.1337 21.8807 43.9837 21.9949 43.7981C22.1091 43.6125 22.169 43.3986 22.1679 43.1807V39.68H19.8341V42.4601L8.8129 47.9693C8.61903 48.0663 8.45603 48.2154 8.34215 48.3999C8.22828 48.5844 8.16804 48.7969 8.1682 49.0137V55.0611C7.38965 55.3361 6.73341 55.8776 6.31543 56.5897C5.89745 57.3018 5.74465 58.1387 5.88402 58.9526C6.02369 59.7664 6.44649 60.5046 7.07772 61.0368C7.70895 61.569 8.50798 61.8609 9.33362 61.8611C10.1593 61.8609 10.9583 61.569 11.5895 61.0368C12.2208 60.5046 12.6436 59.7664 12.7832 58.9526C12.9227 58.1389 12.7701 57.3021 12.3524 56.5901C11.9347 55.878 11.2788 55.3364 10.5005 55.0611ZM9.33362 59.5127C9.02415 59.5127 8.72734 59.3898 8.50851 59.171C8.28968 58.9521 8.16674 58.6553 8.16674 58.3458C8.16674 58.0364 8.28968 57.7396 8.50851 57.5207C8.72734 57.3019 9.02415 57.179 9.33362 57.179C9.6431 57.179 9.9399 57.3019 10.1587 57.5207C10.3776 57.7396 10.5005 58.0364 10.5005 58.3458C10.5005 58.6553 10.3776 58.9521 10.1587 59.171C9.9399 59.3898 9.6431 59.5127 9.33362 59.5127Z" fill="url(#paint8_linear_130_717)"/>
<path d="M66.495 16.3467C65.8157 16.3434 65.1502 16.5384 64.5802 16.9079C64.0101 17.2774 63.5604 17.8052 63.286 18.4267C63.0121 19.0474 62.9253 19.7346 63.0365 20.4039C63.1477 21.0732 63.4519 21.6955 63.9118 22.1943L62.3657 24.5135H58.3268V26.8472H62.9943C63.1862 26.8471 63.3751 26.7997 63.5443 26.7091C63.7135 26.6185 63.8578 26.4876 63.9643 26.328L65.9859 23.2955C66.1536 23.3249 66.3233 23.3419 66.4935 23.3466C67.4219 23.3466 68.3123 22.9777 68.9688 22.3212C69.6254 21.6647 69.9942 20.7743 69.9942 19.8459C69.9938 18.918 69.625 18.0282 68.9688 17.372C68.3127 16.7159 67.4229 16.3471 66.495 16.3467ZM66.495 21.0143C66.1855 21.0143 65.8887 20.8913 65.6699 20.6725C65.451 20.4536 65.3281 20.1568 65.3281 19.8474C65.3281 19.5379 65.451 19.2411 65.6699 19.0223C65.8887 18.8034 66.1855 18.6805 66.495 18.6805C66.8045 18.6805 67.1012 18.8034 67.3201 19.0223C67.5389 19.2411 67.6619 19.5379 67.6619 19.8474C67.6619 20.1568 67.5389 20.4536 67.3201 20.6725C67.1012 20.8913 66.8045 21.0143 66.495 21.0143Z" fill="url(#paint9_linear_130_717)"/>
<path d="M66.495 33.8471C65.9753 33.8502 65.4629 33.9698 64.9955 34.1971L61.492 30.6819C61.3823 30.5739 61.2524 30.4887 61.1098 30.4311C60.9671 30.3736 60.8144 30.3448 60.6605 30.3464H58.3268V32.6802H60.1777L63.3444 35.8483C63.1155 36.3146 62.9958 36.8268 62.9943 37.3463C62.9943 38.2747 63.3631 39.1651 64.0196 39.8216C64.6761 40.4781 65.5665 40.8469 66.495 40.8469C67.4234 40.8469 68.3138 40.4781 68.9703 39.8216C69.6268 39.1651 69.9956 38.2747 69.9956 37.3463C69.9952 36.4181 69.6263 35.5281 68.9698 34.8719C68.3133 34.2157 67.4231 33.8471 66.495 33.8471ZM66.495 38.5146C66.1855 38.5146 65.8887 38.3917 65.6699 38.1728C65.451 37.954 65.3281 37.6572 65.3281 37.3477C65.3281 37.0383 65.451 36.7415 65.6699 36.5226C65.8887 36.3038 66.1855 36.1809 66.495 36.1809C66.8045 36.1809 67.1012 36.3038 67.3201 36.5226C67.5389 36.7415 67.6619 37.0383 67.6619 37.3477C67.6615 37.657 67.5384 37.9534 67.3196 38.1719C67.1008 38.3904 66.8042 38.5132 66.495 38.5132V38.5146Z" fill="url(#paint10_linear_130_717)"/>
<path d="M37.333 11.6806V8.17997C37.3329 7.98806 37.2855 7.79914 37.1949 7.62994C37.1043 7.46075 36.9734 7.31651 36.8138 7.21L33.8338 5.22191V0.0146882H31.5001V5.84912C31.5002 6.04103 31.5476 6.22995 31.6382 6.39914C31.7288 6.56834 31.8597 6.71258 32.0193 6.81909L35.0007 8.80279V11.6806H37.333Z" fill="url(#paint11_linear_130_717)"/>
<path d="M3.50066 12.8475C3.5005 13.0643 3.56074 13.2768 3.67461 13.4613C3.78849 13.6458 3.95149 13.7949 4.14536 13.8919L12.8343 18.2356V19.8474H15.1681V17.5136C15.1681 17.2967 15.1076 17.084 14.9935 16.8995C14.8793 16.7151 14.716 16.566 14.5219 16.4692L5.83443 12.127V9.34686H3.50066V12.8475Z" fill="url(#paint12_linear_130_717)"/>
<path d="M17.5004 5.84766H19.8341V10.5152H17.5004V5.84766Z" fill="url(#paint13_linear_130_717)"/>
<path d="M3.50066 4.68077H5.83443V7.01454H3.50066V4.68077Z" fill="url(#paint14_linear_130_717)"/>
<path d="M61.8274 13.2938L55.4723 16.4692C55.2784 16.5662 55.1154 16.7153 55.0015 16.8998C54.8877 17.0843 54.8274 17.2968 54.8276 17.5136V21.0143H57.1613V18.2356L63.515 15.0646C63.7101 14.9673 63.874 14.8174 63.9882 14.6318C64.1024 14.4462 64.1623 14.2323 64.1612 14.0144V10.5137H61.8274V13.2938Z" fill="url(#paint15_linear_130_717)"/>
<path d="M61.8274 5.84766H64.1612V8.18143H61.8274V5.84766Z" fill="url(#paint16_linear_130_717)"/>
<path d="M49.0004 5.84766H51.3342V8.18143H49.0004V5.84766Z" fill="url(#paint17_linear_130_717)"/>
<path d="M3.50066 45.513V49.0137H5.83443V46.235L14.5219 41.8971C14.7169 41.7999 14.8808 41.65 14.995 41.4644C15.1092 41.2787 15.1692 41.0649 15.1681 40.8469V38.5132H12.8343V40.1264L4.14536 44.4643C3.95083 44.5616 3.78738 44.7114 3.67346 44.8967C3.55954 45.082 3.49969 45.2955 3.50066 45.513Z" fill="url(#paint18_linear_130_717)"/>
<path d="M3.50066 50.1806H5.83443V52.5143H3.50066V50.1806Z" fill="url(#paint19_linear_130_717)"/>
<path d="M24.5002 39.68H26.834V44.3476H24.5002V39.68Z" fill="url(#paint20_linear_130_717)"/>
<path d="M54.8334 37.3463H57.1672V39.68H54.8334V37.3463Z" fill="url(#paint21_linear_130_717)"/>
<defs>
<linearGradient id="paint0_linear_130_717" x1="-2.60754e-07" y1="35.0044" x2="69.9956" y2="35.0044" gradientUnits="userSpaceOnUse">
<stop stop-color="#6CC612"/>
<stop offset="1" stop-color="#569E0F"/>
</linearGradient>
<linearGradient id="paint1_linear_130_717" x1="-2.60754e-07" y1="35.0044" x2="69.9956" y2="35.0044" gradientUnits="userSpaceOnUse">
<stop stop-color="#6CC612"/>
<stop offset="1" stop-color="#569E0F"/>
</linearGradient>
<linearGradient id="paint2_linear_130_717" x1="-2.60754e-07" y1="35.0044" x2="69.9956" y2="35.0044" gradientUnits="userSpaceOnUse">
<stop stop-color="#6CC612"/>
<stop offset="1" stop-color="#569E0F"/>
</linearGradient>
<linearGradient id="paint3_linear_130_717" x1="-2.60754e-07" y1="35.0044" x2="69.9956" y2="35.0044" gradientUnits="userSpaceOnUse">
<stop stop-color="#6CC612"/>
<stop offset="1" stop-color="#569E0F"/>
</linearGradient>
<linearGradient id="paint4_linear_130_717" x1="-2.60754e-07" y1="35.0044" x2="69.9956" y2="35.0044" gradientUnits="userSpaceOnUse">
<stop stop-color="#6CC612"/>
<stop offset="1" stop-color="#569E0F"/>
</linearGradient>
<linearGradient id="paint5_linear_130_717" x1="-2.60754e-07" y1="35.0044" x2="69.9956" y2="35.0044" gradientUnits="userSpaceOnUse">
<stop stop-color="#6CC612"/>
<stop offset="1" stop-color="#569E0F"/>
</linearGradient>
<linearGradient id="paint6_linear_130_717" x1="-2.60754e-07" y1="35.0044" x2="69.9956" y2="35.0044" gradientUnits="userSpaceOnUse">
<stop stop-color="#6CC612"/>
<stop offset="1" stop-color="#569E0F"/>
</linearGradient>
<linearGradient id="paint7_linear_130_717" x1="-2.60754e-07" y1="35.0044" x2="69.9956" y2="35.0044" gradientUnits="userSpaceOnUse">
<stop stop-color="#6CC612"/>
<stop offset="1" stop-color="#569E0F"/>
</linearGradient>
<linearGradient id="paint8_linear_130_717" x1="-2.60754e-07" y1="35.0044" x2="69.9956" y2="35.0044" gradientUnits="userSpaceOnUse">
<stop stop-color="#6CC612"/>
<stop offset="1" stop-color="#569E0F"/>
</linearGradient>
<linearGradient id="paint9_linear_130_717" x1="-2.60754e-07" y1="35.0044" x2="69.9956" y2="35.0044" gradientUnits="userSpaceOnUse">
<stop stop-color="#6CC612"/>
<stop offset="1" stop-color="#569E0F"/>
</linearGradient>
<linearGradient id="paint10_linear_130_717" x1="-2.60754e-07" y1="35.0044" x2="69.9956" y2="35.0044" gradientUnits="userSpaceOnUse">
<stop stop-color="#6CC612"/>
<stop offset="1" stop-color="#569E0F"/>
</linearGradient>
<linearGradient id="paint11_linear_130_717" x1="-2.60754e-07" y1="35.0044" x2="69.9956" y2="35.0044" gradientUnits="userSpaceOnUse">
<stop stop-color="#6CC612"/>
<stop offset="1" stop-color="#569E0F"/>
</linearGradient>
<linearGradient id="paint12_linear_130_717" x1="-2.60754e-07" y1="35.0044" x2="69.9956" y2="35.0044" gradientUnits="userSpaceOnUse">
<stop stop-color="#6CC612"/>
<stop offset="1" stop-color="#569E0F"/>
</linearGradient>
<linearGradient id="paint13_linear_130_717" x1="-2.60754e-07" y1="35.0044" x2="69.9956" y2="35.0044" gradientUnits="userSpaceOnUse">
<stop stop-color="#6CC612"/>
<stop offset="1" stop-color="#569E0F"/>
</linearGradient>
<linearGradient id="paint14_linear_130_717" x1="-2.60754e-07" y1="35.0044" x2="69.9956" y2="35.0044" gradientUnits="userSpaceOnUse">
<stop stop-color="#6CC612"/>
<stop offset="1" stop-color="#569E0F"/>
</linearGradient>
<linearGradient id="paint15_linear_130_717" x1="-2.60754e-07" y1="35.0044" x2="69.9956" y2="35.0044" gradientUnits="userSpaceOnUse">
<stop stop-color="#6CC612"/>
<stop offset="1" stop-color="#569E0F"/>
</linearGradient>
<linearGradient id="paint16_linear_130_717" x1="-2.60754e-07" y1="35.0044" x2="69.9956" y2="35.0044" gradientUnits="userSpaceOnUse">
<stop stop-color="#6CC612"/>
<stop offset="1" stop-color="#569E0F"/>
</linearGradient>
<linearGradient id="paint17_linear_130_717" x1="-2.60754e-07" y1="35.0044" x2="69.9956" y2="35.0044" gradientUnits="userSpaceOnUse">
<stop stop-color="#6CC612"/>
<stop offset="1" stop-color="#569E0F"/>
</linearGradient>
<linearGradient id="paint18_linear_130_717" x1="-2.60754e-07" y1="35.0044" x2="69.9956" y2="35.0044" gradientUnits="userSpaceOnUse">
<stop stop-color="#6CC612"/>
<stop offset="1" stop-color="#569E0F"/>
</linearGradient>
<linearGradient id="paint19_linear_130_717" x1="-2.60754e-07" y1="35.0044" x2="69.9956" y2="35.0044" gradientUnits="userSpaceOnUse">
<stop stop-color="#6CC612"/>
<stop offset="1" stop-color="#569E0F"/>
</linearGradient>
<linearGradient id="paint20_linear_130_717" x1="-2.60754e-07" y1="35.0044" x2="69.9956" y2="35.0044" gradientUnits="userSpaceOnUse">
<stop stop-color="#6CC612"/>
<stop offset="1" stop-color="#569E0F"/>
</linearGradient>
<linearGradient id="paint21_linear_130_717" x1="-2.60754e-07" y1="35.0044" x2="69.9956" y2="35.0044" gradientUnits="userSpaceOnUse">
<stop stop-color="#6CC612"/>
<stop offset="1" stop-color="#569E0F"/>
</linearGradient>
</defs>
</svg>
